<svg xmlns="http://www.w3.org/2000/svg" viewBox="0 0 48 48"><path fill="#8526fe" d="M3 1h42a2 2 0 0 1 2 2v28H1V3a2 2 0 0 1 2-2Z" class="color7c6f66 svgShape"/><path fill="#5fe4d4" d="M1 30h46v4a2 2 0 0 1-2 2H3a2 2 0 0 1-2-2v-4zm32 17c-19.49 0-17.92-.1-18 0 3-4 3-7.67 3-11h4v3a2 2 0 0 0 4 0v-3h4c0 3.53 0 7 3 11zm-1.41-25.41L17.41 7.41A2 2 0 1 0 14 6a2 2 0 1 0 1.41 3.41l14.18 14.18A2 2 0 1 0 33 25a2 2 0 1 0-1.41-3.41z" class="colorffffff svgShape"/><path fill="#5fe4d4" d="M29.59 7.41 15.41 21.59A2 2 0 1 0 14 25a2 2 0 1 0 3.41-1.41L31.59 9.41A2 2 0 1 0 33 6a2 2 0 1 0-3.41 1.41Z" class="colorffffff svgShape"/><path fill="#ad59d4" d="M45 0H3a3 3 0 0 0-3 3v31a3 3 0 0 0 3 3h14a14.32 14.32 0 0 1-2.51 9H11v2h26v-2h-3.48C31.25 42.8 31 39.94 31 37h14a3 3 0 0 0 3-3V3a3 3 0 0 0-3-3ZM31.13 46H16.89A16.8 16.8 0 0 0 19 37h2v2a3 3 0 0 0 6 0v-2h2a16.65 16.65 0 0 0 2.13 9ZM23 39v-2h2v2a1 1 0 0 1-2 0Zm23-5a1 1 0 0 1-1 1H3a1 1 0 0 1-1-1v-3h44Zm0-5H2V3a1 1 0 0 1 1-1h42a1 1 0 0 1 1 1Z" class="color000000 svgShape"/><path fill="#d8a353" d="M29.46 19.84c-.65.61-.61 1-1.46 4.16h-8c-.89-3.36-.84-3.57-1.46-4.16A7.92 7.92 0 0 1 16 14c0-5.89 6.36-10.29 12.59-6.71 3.53 2.03 5.06 8.64.87 12.55Z" class="colorffbe1d svgShape"/><circle cx="21" cy="13" r="2" fill="#8526fe" class="color7c6f66 svgShape"/><circle cx="27" cy="13" r="2" fill="#8526fe" class="color7c6f66 svgShape"/><path fill="#8526fe" d="m24 16-1.65 2.47a.78.78 0 0 0 1.2 1 .64.64 0 0 1 .9 0 .78.78 0 0 0 1.2-1Z" class="color7c6f66 svgShape"/></svg>